<svg width="34" height="22" viewBox="0 0 34 22" fill="none" xmlns="http://www.w3.org/2000/svg">
<path d="M33.25 14.1719C33.25 15.1615 33.0547 16.0859 32.6641 16.9453C32.2995 17.8047 31.7917 18.5599 31.1406 19.2109C30.5156 19.8359 29.7604 20.3438 28.875 20.7344C28.0156 21.099 27.1042 21.2812 26.1406 21.2812C25.151 21.2812 24.2266 21.099 23.3672 20.7344C22.5078 20.3698 21.7526 19.862 21.1016 19.2109C20.4505 18.5599 19.9427 17.8047 19.5781 16.9453C19.2135 16.0859 19.0312 15.1615 19.0312 14.1719C19.0312 12.974 19.1875 11.75 19.5 10.5C19.8125 9.25 20.2422 8.03906 20.7891 6.86719C21.362 5.66927 22.026 4.54948 22.7812 3.50781C23.5365 2.4401 24.3568 1.51562 25.2422 0.734375L30.8672 3.66406C30.3203 4.10677 29.7604 4.66667 29.1875 5.34375C28.6406 5.99479 28.3151 6.67188 28.2109 7.375C28.9401 7.60938 29.6172 7.94792 30.2422 8.39062C30.8672 8.83333 31.401 9.35417 31.8438 9.95312C32.2865 10.5521 32.625 11.2161 32.8594 11.9453C33.1198 12.6484 33.25 13.3906 33.25 14.1719ZM15.1641 14.1719C15.1641 15.1615 14.9688 16.0859 14.5781 16.9453C14.2135 17.8047 13.7057 18.5599 13.0547 19.2109C12.4297 19.8359 11.6745 20.3438 10.7891 20.7344C9.92969 21.099 9.01823 21.2812 8.05469 21.2812C7.0651 21.2812 6.14062 21.099 5.28125 20.7344C4.42188 20.3698 3.66667 19.862 3.01562 19.2109C2.36458 18.5599 1.85677 17.8047 1.49219 16.9453C1.1276 16.0859 0.945312 15.1615 0.945312 14.1719C0.945312 12.974 1.10156 11.75 1.41406 10.5C1.72656 9.25 2.15625 8.03906 2.70312 6.86719C3.27604 5.66927 3.9401 4.54948 4.69531 3.50781C5.45052 2.4401 6.27083 1.51562 7.15625 0.734375L12.7812 3.66406C12.2344 4.10677 11.6745 4.66667 11.1016 5.34375C10.5547 5.99479 10.2292 6.67188 10.125 7.375C10.8542 7.60938 11.5312 7.94792 12.1562 8.39062C12.7812 8.83333 13.3151 9.35417 13.7578 9.95312C14.2005 10.5521 14.5391 11.2161 14.7734 11.9453C15.0339 12.6484 15.1641 13.3906 15.1641 14.1719Z" fill="#E9DFC3"/>
</svg>
