<svg width="500" height="219" viewBox="0 0 500 219" fill="none" xmlns="http://www.w3.org/2000/svg">
<g clip-path="url(#clip0_9_63)">
<path d="M258.202 0.499878H216.909C208.376 0.499878 199.535 7.1516 197.163 15.357L142.92 202.965C140.547 211.171 145.541 217.822 154.074 217.822H195.367C203.9 217.822 212.74 211.171 215.113 202.965L269.356 15.357C271.729 7.1516 266.735 0.499878 258.202 0.499878Z" fill="#E9DFC3"/>
<path d="M499.404 15.5637L487.911 55.2695C485.537 63.4742 476.694 70.1234 468.161 70.1209L273.068 70.0632C264.536 70.0607 259.544 63.4074 261.919 55.2027L273.411 15.4969C275.786 7.29225 284.629 0.643145 293.161 0.645667L488.254 0.703319C496.787 0.705841 501.779 7.35904 499.404 15.5637Z" fill="#E9DFC3"/>
<path d="M477.738 89.7551L466.245 129.461C463.87 137.666 455.028 144.315 446.495 144.312L251.402 144.255C242.869 144.252 237.877 137.599 240.252 129.394L251.745 89.6883C254.12 81.4837 262.962 74.8346 271.495 74.8371L466.588 74.8947C475.121 74.8972 480.113 81.5504 477.738 89.7551Z" fill="#E9DFC3"/>
<path d="M348.549 163.211L336.847 204.388C334.631 212.186 326.269 218.505 318.17 218.5L229.789 218.45C221.69 218.445 216.921 212.12 219.137 204.321L230.839 163.145C233.055 155.346 241.417 149.028 249.516 149.032L337.898 149.083C345.997 149.087 350.766 155.413 348.549 163.211Z" fill="#E9DFC3"/>
<path d="M11.7488 0.499878H53.0422C61.575 0.499878 70.4153 7.1516 72.7878 15.357L127.031 202.965C129.404 211.171 124.41 217.822 115.877 217.822H74.5836C66.0509 217.822 57.2105 211.171 54.8381 202.965L0.594588 15.357C-1.77784 7.1516 3.21607 0.499878 11.7488 0.499878Z" fill="#E9DFC3"/>
<path d="M153.3 123.75L139.08 76.0334C136.734 68.1603 132.986 68.1766 130.708 76.07L116.603 124.953C114.325 132.846 114.381 145.628 116.727 153.501L130.947 201.217C133.294 209.091 137.042 209.074 139.32 201.181L153.425 152.298C155.702 144.404 155.647 131.623 153.3 123.75Z" fill="#E9DFC3"/>
</g>
<defs>
<clipPath id="clip0_9_63">
<rect width="500" height="218" fill="white" transform="translate(0 0.5)"/>
</clipPath>
</defs>
</svg>
